<?xml version="1.0" standalone="no"?>
<!DOCTYPE svg PUBLIC "-//W3C//DTD SVG 20010904//EN"
 "http://www.w3.org/TR/2001/REC-SVG-20010904/DTD/svg10.dtd">
<svg version="1.0" xmlns="http://www.w3.org/2000/svg"
 width="704.000000pt" height="704.000000pt" viewBox="0 0 704.000000 704.000000"
 preserveAspectRatio="xMidYMid meet">
<metadata>
Created by potrace 1.14, written by Peter Selinger 2001-2017
</metadata>
<g transform="translate(0.000000,704.000000) scale(0.100000,-0.100000)"
fill="#000000" stroke="none">
<path d="M4230 6946 c-19 -7 -64 -27 -100 -43 -82 -38 -303 -109 -324 -104 -4
1 -14 -3 -20 -9 -7 -5 -16 -7 -19 -4 -3 3 -12 2 -19 -2 -7 -4 -19 -9 -28 -10
-36 -5 -89 -14 -137 -23 -190 -37 -517 -34 -733 6 -106 19 -161 33 -272 70
-104 33 -146 37 -183 15 -5 -4 -14 -7 -20 -8 -22 -4 -161 -57 -219 -84 -74
-34 -296 -131 -350 -154 -40 -17 -42 -24 -10 -31 11 -2 89 -25 174 -51 85 -25
172 -46 193 -45 22 0 104 -21 190 -49 134 -43 206 -64 257 -75 126 -27 167
-35 235 -45 225 -31 541 -33 764 -5 44 6 251 43 276 49 22 6 101 26 125 31 76
18 225 68 448 150 18 6 38 17 44 23 7 7 16 12 20 12 7 0 191 87 371 175 32 16
54 32 50 35 -7 7 -396 138 -425 144 -7 2 -20 6 -28 9 -33 13 -161 37 -192 36
-18 0 -49 -6 -68 -13z"/>
<path d="M5374 6444 c-32 -25 -61 -49 -64 -53 -5 -7 -252 -181 -296 -208 -75
-47 -230 -138 -234 -138 -3 -1 -16 -7 -30 -15 -81 -46 -340 -160 -420 -185 -3
-1 -43 -13 -90 -28 -97 -30 -189 -53 -240 -62 -19 -3 -57 -10 -85 -15 -163
-30 -547 -33 -675 -4 -14 3 -38 7 -55 10 -16 2 -41 7 -55 10 -14 3 -38 8 -55
10 -16 3 -41 9 -55 14 -189 66 -531 171 -600 185 -8 2 -33 8 -55 13 -22 6 -60
14 -85 17 -24 4 -47 8 -50 10 -3 2 -35 7 -70 10 -36 4 -67 8 -71 10 -10 7
-209 18 -309 18 -93 0 -265 -9 -305 -17 -22 -4 -124 -20 -140 -21 -68 -8 -427
-108 -460 -130 -23 -14 -95 -84 -95 -92 0 -2 -6 -10 -13 -17 -6 -7 -23 -28
-37 -46 -14 -18 -47 -60 -74 -94 -56 -69 -356 -522 -356 -536 0 -6 -4 -10 -10
-10 -5 0 -10 -5 -10 -10 0 -9 168 74 417 206 33 17 81 35 106 38 49 7 115 29
223 74 129 54 290 100 439 127 32 5 111 14 185 20 25 2 45 4 45 5 0 9 344 -4
408 -16 18 -3 44 -7 59 -9 24 -3 81 -14 158 -31 14 -3 36 -7 50 -10 14 -3 117
-36 230 -74 190 -64 306 -97 405 -116 22 -4 47 -9 55 -10 8 -2 38 -6 65 -9 28
-3 57 -8 65 -10 92 -24 609 -25 727 -1 12 3 48 7 79 11 32 3 60 8 63 10 4 2
27 6 51 10 149 21 590 158 612 189 4 6 8 8 8 4 0 -17 287 125 457 225 101 61
213 133 269 176 12 9 32 23 44 31 12 8 39 29 60 45 48 39 75 60 192 153 54 42
98 80 98 83 0 4 -35 34 -77 67 -43 33 -89 71 -103 84 -31 28 -87 68 -95 68 -3
0 -33 18 -65 40 -32 22 -63 40 -68 40 -5 0 -35 -21 -68 -46z"/>
<path d="M6069 5687 c-141 -137 -164 -159 -264 -242 -33 -27 -62 -52 -65 -55
-9 -11 -205 -156 -285 -212 -159 -109 -427 -259 -580 -323 -50 -21 -225 -85
-245 -90 -8 -2 -46 -13 -83 -24 -63 -18 -206 -51 -252 -57 -11 -1 -20 -3 -20
-4 0 -1 -13 -3 -30 -5 -16 -1 -61 -7 -100 -11 -125 -15 -458 -7 -547 12 -10 2
-26 6 -37 8 -10 2 -36 7 -57 10 -22 4 -57 12 -79 17 -22 6 -47 13 -55 14 -8 2
-15 4 -15 5 0 1 -9 3 -20 5 -11 2 -47 14 -80 25 -33 11 -68 22 -77 25 -9 2
-26 9 -37 15 -12 6 -21 9 -21 6 0 -3 -19 4 -42 14 -24 10 -54 21 -68 24 -14 3
-63 17 -109 31 -46 14 -98 28 -114 31 -17 2 -33 7 -37 9 -4 2 -22 7 -41 10
-19 3 -47 8 -64 12 -16 3 -39 7 -50 9 -11 1 -38 5 -60 9 -81 12 -104 15 -201
21 -132 9 -268 9 -384 1 -110 -9 -151 -14 -265 -33 -66 -11 -70 -12 -189 -43
-233 -62 -501 -175 -736 -309 -101 -58 -272 -163 -280 -172 -3 -4 -63 -53
-135 -111 -163 -130 -165 -132 -236 -200 -64 -61 -59 -47 -74 -234 -3 -33 -7
-87 -11 -120 -13 -137 -26 -444 -18 -457 3 -5 14 1 25 13 11 12 77 84 147 158
240 256 422 424 617 569 31 23 159 104 215 135 36 21 72 42 80 47 8 5 29 16
45 24 17 7 64 29 105 49 105 49 318 127 388 142 12 3 32 7 44 10 13 3 59 12
103 20 44 8 90 17 102 19 110 22 429 22 563 1 14 -2 45 -7 70 -10 25 -3 52 -8
60 -10 8 -2 31 -7 50 -10 62 -11 183 -44 275 -75 200 -69 366 -119 445 -134
14 -3 48 -9 75 -15 64 -12 131 -22 175 -26 19 -2 69 -7 110 -10 190 -17 449
-5 649 30 137 24 143 25 206 42 33 8 67 16 75 18 8 2 60 17 115 35 55 17 107
32 115 34 8 2 78 30 155 61 77 32 152 62 168 68 15 6 27 15 27 19 0 4 8 8 18
9 9 0 49 18 87 40 39 21 79 43 90 48 11 5 49 26 85 46 36 21 74 43 85 49 77
44 350 228 365 246 3 3 21 17 40 30 35 24 129 98 186 148 17 15 93 87 168 160
76 72 141 132 147 132 20 0 6 32 -42 97 -28 37 -70 95 -93 128 -67 99 -131
184 -136 184 -3 0 -66 -59 -141 -132z"/>
<path d="M6584 4887 c-152 -154 -306 -301 -388 -372 -32 -27 -68 -59 -80 -70
-11 -11 -52 -45 -91 -75 -38 -30 -75 -59 -81 -65 -22 -21 -262 -188 -300 -209
-21 -11 -43 -25 -49 -29 -22 -18 -175 -105 -175 -100 0 3 -6 0 -14 -6 -12 -10
-132 -73 -146 -76 -3 -1 -23 -9 -45 -19 -198 -89 -450 -168 -610 -191 -22 -4
-69 -11 -105 -17 -82 -14 -500 -19 -500 -6 0 5 -5 6 -10 3 -6 -4 -44 -1 -86 5
-103 16 -106 16 -229 45 -16 4 -68 19 -115 33 -47 14 -87 27 -90 27 -3 1 -12
5 -20 8 -67 28 -315 102 -380 113 -14 3 -33 7 -42 10 -18 5 -39 10 -89 18 -19
3 -45 8 -59 11 -174 35 -525 45 -720 20 -19 -2 -51 -6 -70 -9 -114 -13 -303
-58 -451 -106 -96 -32 -107 -36 -171 -64 -20 -9 -38 -16 -41 -16 -3 0 -40 -16
-81 -35 -42 -19 -77 -34 -79 -33 -1 2 -15 -6 -32 -18 -16 -11 -58 -35 -93 -52
-54 -29 -290 -172 -317 -194 -5 -5 -50 -38 -100 -75 -49 -37 -95 -72 -101 -77
-6 -6 -33 -29 -60 -51 -26 -22 -66 -56 -88 -75 -22 -19 -47 -39 -55 -45 -18
-12 -127 -121 -248 -247 l-92 -96 15 -63 c8 -35 24 -93 35 -129 11 -36 22 -74
23 -85 2 -11 12 -45 23 -75 61 -166 76 -198 86 -194 7 3 24 22 38 42 112 157
166 220 279 322 45 41 88 80 94 85 6 6 53 45 105 88 51 43 98 83 105 88 80 69
327 238 451 310 189 110 496 233 654 264 13 2 30 6 39 9 9 3 37 8 62 11 24 4
47 8 50 10 3 2 37 6 75 10 39 4 84 9 100 11 92 11 378 4 457 -11 13 -3 43 -8
68 -11 94 -12 356 -79 375 -95 5 -5 19 -9 31 -9 13 0 26 -4 29 -10 3 -5 15
-10 26 -10 10 0 27 -4 37 -9 28 -14 66 -29 87 -34 11 -2 63 -16 115 -30 107
-29 297 -63 410 -73 162 -15 526 -8 645 12 17 3 44 7 60 9 57 6 110 16 200 37
50 11 91 20 92 20 2 -1 21 5 43 13 22 8 44 15 48 16 18 4 33 9 127 39 216 69
460 182 683 314 99 59 131 79 202 126 99 66 211 149 335 250 125 100 138 113
338 310 l187 185 -34 100 c-19 55 -40 114 -47 130 -7 17 -13 35 -15 40 -1 6
-8 24 -15 40 -7 17 -13 32 -13 35 -3 17 -60 166 -65 172 -4 5 -66 -52 -137
-125z"/>
<path d="M6844 3693 c-104 -104 -221 -216 -259 -250 -320 -285 -656 -508 -995
-660 -59 -27 -188 -77 -255 -99 -38 -13 -265 -75 -287 -79 -16 -3 -40 -7 -55
-10 -16 -2 -44 -7 -63 -10 -127 -22 -332 -31 -480 -21 -99 7 -193 17 -201 21
-4 3 -24 7 -45 10 -85 11 -243 55 -399 110 -71 26 -137 48 -145 51 -8 2 -49
13 -90 25 -41 11 -84 22 -95 24 -11 2 -20 4 -20 5 0 2 -35 10 -62 15 -11 1
-29 5 -40 9 -10 3 -36 8 -58 11 -23 3 -52 7 -65 10 -25 5 -67 10 -170 22 -30
4 -147 6 -260 6 -205 1 -261 -3 -402 -29 -18 -3 -44 -7 -58 -9 -102 -15 -459
-122 -485 -146 -5 -5 -15 -9 -22 -9 -26 0 -279 -124 -406 -199 -114 -67 -107
-62 -217 -138 -38 -26 -183 -135 -196 -147 -6 -6 -33 -29 -60 -51 -82 -66
-336 -326 -398 -408 l-28 -36 66 -96 c36 -52 74 -109 83 -127 47 -87 110 -177
123 -177 8 0 26 15 40 35 14 19 39 51 55 71 42 51 293 301 344 343 24 19 51
42 61 50 9 8 32 26 50 40 18 14 39 31 46 38 7 6 17 12 22 12 6 0 12 4 14 8 3
8 158 113 210 142 148 83 370 183 458 205 3 1 12 4 20 8 21 8 83 27 106 32 10
2 55 13 99 23 71 17 109 24 205 38 182 26 467 21 635 -10 138 -27 191 -37 205
-43 8 -3 23 -8 33 -9 10 -2 93 -29 185 -61 92 -31 183 -60 202 -65 19 -5 51
-13 70 -19 47 -12 167 -39 205 -45 17 -3 44 -7 60 -10 190 -33 619 -39 750
-11 11 3 47 8 80 12 32 3 62 8 65 10 3 2 25 6 50 10 25 4 47 8 50 10 3 2 21 6
40 9 19 3 76 17 125 32 50 14 95 27 100 28 6 2 17 6 25 9 8 3 51 18 95 33 44
14 84 30 90 35 5 5 15 9 23 9 7 0 34 9 60 21 156 69 196 88 282 132 79 41 185
100 285 160 141 83 445 297 453 318 2 5 8 9 13 9 5 0 19 9 31 19 13 11 57 47
98 81 127 104 165 143 166 170 1 14 5 81 9 150 4 69 9 166 10 215 2 50 6 143
9 208 4 64 5 117 3 117 -2 0 -89 -84 -193 -187z"/>
<path d="M6730 2171 c0 -5 -9 -13 -21 -16 -11 -4 -57 -28 -102 -54 -45 -26
-89 -50 -97 -54 -14 -7 -32 -17 -135 -77 -57 -33 -263 -143 -307 -163 -107
-50 -209 -96 -213 -97 -3 0 -20 -6 -38 -13 -17 -7 -63 -24 -102 -37 -38 -12
-77 -25 -85 -28 -8 -3 -19 -6 -25 -7 -5 -2 -41 -12 -80 -23 -38 -11 -81 -22
-95 -25 -14 -3 -36 -8 -50 -11 -14 -4 -39 -8 -57 -11 -18 -2 -58 -8 -90 -14
-32 -5 -88 -12 -126 -15 -37 -3 -73 -8 -79 -12 -7 -5 -8 -3 -3 6 5 9 4 11 -3
6 -7 -4 -58 -7 -114 -7 -149 0 -264 12 -443 46 -65 12 -223 58 -300 87 -44 16
-87 31 -95 33 -8 2 -16 4 -17 5 -2 2 -6 3 -10 4 -5 1 -12 4 -18 7 -5 4 -23 10
-40 14 -16 4 -37 9 -45 11 -114 32 -209 57 -227 59 -12 2 -36 7 -55 11 -18 4
-35 8 -38 9 -3 1 -32 5 -65 9 -33 5 -71 10 -85 12 -106 15 -179 19 -340 18
-170 0 -287 -7 -350 -19 -14 -2 -40 -7 -57 -10 -90 -14 -109 -18 -233 -49 -58
-15 -125 -34 -150 -43 -25 -8 -74 -26 -110 -38 -85 -30 -160 -64 -295 -132
-60 -31 -120 -61 -132 -67 -13 -6 -23 -14 -23 -18 0 -5 -5 -8 -10 -8 -26 0
-331 -211 -416 -287 -17 -15 -55 -48 -84 -73 -30 -25 -72 -62 -94 -84 l-40
-39 55 -49 c30 -27 75 -68 100 -92 26 -24 89 -71 139 -105 l93 -60 26 23 c31
29 132 114 146 124 6 4 46 34 90 68 44 33 95 69 113 79 17 11 32 23 32 27 0 4
4 8 9 8 5 0 39 18 76 40 81 50 250 133 302 150 21 7 43 16 48 20 30 23 336
106 465 126 19 3 46 7 59 9 171 29 516 23 681 -10 14 -3 34 -7 45 -9 61 -12
214 -50 235 -59 14 -5 34 -12 45 -14 11 -1 29 -7 40 -13 63 -30 330 -111 415
-126 14 -3 32 -7 41 -10 9 -2 34 -7 55 -9 36 -5 65 -10 109 -19 135 -27 654
-28 755 -1 8 2 35 6 60 9 174 21 502 112 700 195 64 26 85 42 135 98 33 36 68
75 78 85 9 10 17 23 17 28 0 6 3 10 8 10 4 0 18 17 32 37 14 21 31 44 39 53 7
8 89 134 183 280 93 146 176 275 184 288 13 19 13 22 -1 22 -8 0 -15 -4 -15
-9z"/>
<path d="M3288 804 c-2 -1 -34 -6 -73 -9 -38 -4 -81 -9 -95 -10 -30 -3 -146
-23 -175 -29 -241 -56 -415 -115 -627 -215 -37 -17 -71 -31 -76 -31 -5 0 -15
-7 -22 -15 -7 -8 -19 -15 -27 -15 -8 0 -57 -21 -110 -47 -86 -43 -93 -48 -72
-56 13 -5 33 -13 44 -17 30 -12 59 -23 65 -25 21 -5 89 -28 105 -35 27 -12
385 -131 408 -136 10 -1 50 10 90 26 40 15 89 31 109 34 20 3 54 12 75 20 44
17 102 33 153 41 19 3 46 7 60 10 206 38 495 36 725 -6 33 -7 71 -13 85 -15
60 -8 311 -85 385 -118 57 -26 72 -26 156 0 46 14 94 27 107 30 13 3 65 21
115 40 51 19 188 70 305 112 143 51 207 79 195 83 -16 6 -72 20 -140 34 -52
11 -65 14 -83 20 -10 3 -27 7 -37 9 -10 2 -47 12 -83 21 -36 9 -72 18 -81 20
-41 8 -173 50 -259 82 -191 71 -384 127 -510 148 -48 8 -70 12 -110 20 -34 6
-101 15 -164 22 -54 5 -434 12 -438 7z"/>
</g>
</svg>
